<svg width="148" height="27" viewBox="0 0 148 27" fill="none" xmlns="http://www.w3.org/2000/svg">
<path d="M4.09116 3.608V23.192H8.51916C9.52716 23.192 10.4632 23 11.3272 22.616C12.1912 22.208 12.9352 21.596 13.5592 20.78C14.1832 19.964 14.6632 18.944 14.9992 17.72C15.3592 16.472 15.5392 15.02 15.5392 13.364C15.5392 11.708 15.3592 10.268 14.9992 9.044C14.6632 7.82 14.1832 6.812 13.5592 6.02C12.9592 5.204 12.2392 4.604 11.3992 4.22C10.5592 3.812 9.63516 3.608 8.62716 3.608H4.09116ZM8.73516 0.799998C10.1992 0.799998 11.5672 1.064 12.8392 1.592C14.1112 2.12 15.2152 2.912 16.1512 3.968C17.0872 5.024 17.8192 6.332 18.3472 7.892C18.8752 9.452 19.1392 11.276 19.1392 13.364C19.1392 15.452 18.8752 17.288 18.3472 18.872C17.8432 20.432 17.1232 21.74 16.1872 22.796C15.2512 23.852 14.1352 24.656 12.8392 25.208C11.5672 25.736 10.1752 26 8.66316 26H0.635156V0.799998H8.73516ZM39.2845 3.608H28.7005V11.996H38.2045V14.804H28.7005V23.192H39.2845V26H25.2445V0.799998H39.2845V3.608ZM54.4653 26H48.9933L42.3333 0.799998H45.7173L51.7293 23.552L57.7413 0.799998H61.1253L54.4653 26ZM72.7001 0.799998C73.9961 0.799998 75.1241 0.991999 76.0841 1.376C77.0441 1.76 77.8361 2.276 78.4601 2.924C79.1081 3.548 79.5881 4.28 79.9001 5.12C80.2361 5.96 80.4041 6.848 80.4041 7.784C80.4041 10.208 79.3721 11.912 77.3081 12.896C78.7001 13.376 79.7441 14.132 80.4401 15.164C81.1361 16.196 81.4841 17.468 81.4841 18.98C81.4841 21.092 80.8481 22.796 79.5761 24.092C78.3041 25.364 76.3721 26 73.7801 26H65.4281V0.799998H72.7001ZM68.8841 14.444V23.192H73.7801C74.6201 23.192 75.3161 23.06 75.8681 22.796C76.4441 22.532 76.9001 22.196 77.2361 21.788C77.5721 21.356 77.8001 20.876 77.9201 20.348C78.0641 19.82 78.1361 19.292 78.1361 18.764C78.1361 18.236 78.0641 17.708 77.9201 17.18C77.8001 16.652 77.5721 16.196 77.2361 15.812C76.9001 15.404 76.4441 15.08 75.8681 14.84C75.3161 14.576 74.6201 14.444 73.7801 14.444H68.8841ZM68.8841 3.608V11.636H72.7001C73.5401 11.636 74.2361 11.516 74.7881 11.276C75.3641 11.012 75.8201 10.688 76.1561 10.304C76.4921 9.92 76.7201 9.488 76.8401 9.008C76.9841 8.528 77.0561 8.048 77.0561 7.568C77.0561 7.088 76.9841 6.62 76.8401 6.164C76.7201 5.684 76.4921 5.252 76.1561 4.868C75.8201 4.484 75.3641 4.184 74.7881 3.968C74.2361 3.728 73.5401 3.608 72.7001 3.608H68.8841ZM87.0492 26V0.799998H90.5052V23.192H99.2892V26H87.0492ZM102.176 13.364C102.176 11.204 102.44 9.308 102.968 7.676C103.496 6.044 104.228 4.676 105.164 3.572C106.1 2.468 107.204 1.64 108.476 1.088C109.772 0.535999 111.164 0.259999 112.652 0.259999C114.14 0.259999 115.52 0.535999 116.792 1.088C118.088 1.64 119.204 2.468 120.14 3.572C121.1 4.676 121.844 6.044 122.372 7.676C122.924 9.308 123.2 11.204 123.2 13.364C123.2 15.548 122.924 17.468 122.372 19.124C121.844 20.756 121.1 22.124 120.14 23.228C119.204 24.332 118.088 25.16 116.792 25.712C115.52 26.264 114.14 26.54 112.652 26.54C111.164 26.54 109.772 26.264 108.476 25.712C107.204 25.16 106.1 24.332 105.164 23.228C104.228 22.124 103.496 20.756 102.968 19.124C102.44 17.468 102.176 15.548 102.176 13.364ZM105.776 13.364C105.776 15.14 105.944 16.676 106.28 17.972C106.616 19.268 107.084 20.348 107.684 21.212C108.308 22.052 109.04 22.688 109.88 23.12C110.72 23.528 111.644 23.732 112.652 23.732C113.684 23.732 114.62 23.528 115.46 23.12C116.324 22.688 117.056 22.052 117.656 21.212C118.28 20.348 118.76 19.268 119.096 17.972C119.432 16.676 119.6 15.14 119.6 13.364C119.6 11.612 119.432 10.1 119.096 8.828C118.76 7.532 118.28 6.464 117.656 5.624C117.056 4.76 116.324 4.124 115.46 3.716C114.62 3.284 113.684 3.068 112.652 3.068C111.644 3.068 110.72 3.284 109.88 3.716C109.04 4.124 108.308 4.76 107.684 5.624C107.084 6.464 106.616 7.532 106.28 8.828C105.944 10.1 105.776 11.612 105.776 13.364ZM147.091 13.04V26H145.435L144.787 24.56C143.971 25.136 143.059 25.616 142.051 26C141.067 26.36 139.951 26.54 138.703 26.54C137.191 26.54 135.787 26.264 134.491 25.712C133.219 25.136 132.115 24.296 131.179 23.192C130.243 22.088 129.511 20.72 128.983 19.088C128.479 17.432 128.227 15.524 128.227 13.364C128.227 11.204 128.491 9.308 129.019 7.676C129.547 6.02 130.279 4.652 131.215 3.572C132.151 2.468 133.243 1.64 134.491 1.088C135.763 0.535999 137.143 0.259999 138.631 0.259999C140.599 0.259999 142.255 0.667999 143.599 1.484C144.967 2.3 145.963 3.716 146.587 5.732L143.527 6.848C143.143 5.576 142.519 4.628 141.655 4.004C140.815 3.38 139.843 3.068 138.739 3.068C137.731 3.068 136.807 3.284 135.967 3.716C135.127 4.124 134.395 4.748 133.771 5.588C133.171 6.428 132.691 7.496 132.331 8.792C131.995 10.088 131.827 11.612 131.827 13.364C131.827 15.116 131.995 16.64 132.331 17.936C132.691 19.232 133.183 20.312 133.807 21.176C134.431 22.04 135.175 22.688 136.039 23.12C136.903 23.528 137.839 23.732 138.847 23.732C139.855 23.732 140.791 23.576 141.655 23.264C142.543 22.928 143.323 22.52 143.995 22.04V15.848H139.711V13.04H143.995H147.091Z" fill="black"/>
</svg>
